# xmcd CD database file
#
# Track frame offsets:
#	150
#	14763
#	30125
#	45029
#	60686
#	70474
#	84560
#	99372
#	114842
#	127932
#	139122
#	159447
#
# Disc length: 2313 seconds
#
# Revision: 0
# Processed by: cddbd v1.5.2PL0 Copyright (c) Steve Scherf et al.
# Submitted via: CDex 1.51
#
DISCID=8b09070c
DTITLE=Heli Deinboek - Schau, Schau!
DYEAR=1981
DGENRE=Blues
TTITLE0=Bevur da Wödkriag kummt
TTITLE1=SöbstMöada-Lied
TTITLE2=Nimma Laung
TTITLE3=Psycherl san ma olle
TTITLE4=Schuldgefühle
TTITLE5=Ruckizucki
TTITLE6=Buarli heast
TTITLE7=Da Herrgott schickt a Telegramm
TTITLE8=Tante Promilli
TTITLE9=I steh auf di
TTITLE10=Prinz Mannitou
TTITLE11=Ned schlecht Blues
EXTD=YEAR: 1981
EXTT0=
EXTT1=
EXTT2=
EXTT3=
EXTT4=
EXTT5=
EXTT6=
EXTT7=
EXTT8=
EXTT9=
EXTT10=
EXTT11=
PLAYORDER=
